<svg xmlns="http://www.w3.org/2000/svg" viewBox="0 0 500 500" data-flip="false" data-invert="false" data-rounded="false"
  style="width: 16px; height: 16px;">
  <path stroke="var(--text)" fill="var(--text)"
    d="M243.5 37h210l18 6L485 53.5l6 8 5 10 3 9v10l1 1v255l-1 1v10l-3 9-5 10-8.5 10.5-8 6-10 5-6 1-1 1h-4l-1 1H345v62h46.5q6.8 2.3 10.5 7.5l3 8v5l-3 7-4.5 4.5-6 3h-258l-5-2-5.5-5.5-3-7v-7l5.5-9.5 8-4H180v-62H71.5l-1-1-8-1-9-4-9-6-5.5-5.5-10-16-3-9v-6l-1-1v-92l.5-.5 4 4 12 8 18.5 9.5v70l3 7 5.5 5.5 5 2h378q6.8-2.3 10.5-7.5l3-8v-261l-3-8-5.5-5.5-5-2h-188l-1.5-1.5-6-14-12-18-.5-2.5zM214 401v62h96v-62h-96z">
  </path>
  <path fill="var(--primary)" stroke="var(--primary)"
    d="M105.5 0h28l1 1h6.5q-.8 2.6 1 3.5v4l1 1v3l1 1v3l1 1v3l2 6 7 12 6.5 6.5 7 5 12 5q4-1 5 1h12l1-1h4l4-2h3l7-3h3L230 66.5l6 12 3 10-15 15-7 12-1 6-1 1v4l-1 1v13l1 1v4l3 9 4 7 17 18-8 20-12.5 18.5-9-3h-3l-4-2h-3l-1-1h-16l-14 5-12.5 9.5-5 7-5 10v3l-3 9-1 7-1 1v3.5h-8.5l-1 1h-24l-1-1H99l-1-2.5v-3l-1-1v-3l-1-1-1-8-3-9-6-10-8.5-8.5-13-7h-3l-5-2h-16l-4 2h-3l-12 4L11 203.5l-7-14-1-5-2-3v-3l12-11 7-10 3-7 1-6 1-1v-4l1-1v-9l-1-1-1-9-5-11q-7.4-11.6-18-20v-2l10-22 9-13V50l7.5 1 7 3 8 1 1 1h11q1.3-2.3 6-1l10-5h2L85 39.5l7-11 3-9v-3l1-1v-4l2-5v-4L99.5 1q4.8 1.3 6-1zm8.5 98l-6 2-9 5-9 10-5 12v14q2 0 1 4l4 9 3 4 5 4 8 5 6 2h5l1 1 14-2 8-4 4-4h1v-1q5-5 8-12l1-7 1-1v-9q-2-1-1-5l-2-6-6-9q-5-7-13-10l-6-2h-13z">
  </path>
</svg>