<svg xmlns="http://www.w3.org/2000/svg" viewBox="0 0 64 64" data-flip="false" data-invert="false" data-rounded="false"
  style="width: 16px; height: 16px;">
  <path stroke="var(--text)" fill="var(--text)"
    d="M52.36 2.42c1.13-.78 3.1.11 3.01 1.58.16 4.63.24 9.29-.06 13.92-1.33 1.78-3.92 1.84-5.83 2.7-2.86.88-5.63 2.05-8.55 2.73-2.24.82-3.57-2.75-1.56-3.76 3.12-1.45 6.55-2.08 9.7-3.46-4.53-5.47-12.03-8.07-19.02-7.52-7.45.53-14.44 4.97-18.24 11.38-3.59 5.9-4.28 13.42-1.95 19.9 2.06 5.83 6.52 10.78 12.13 13.38 6.52 3.08 14.48 2.94 20.86-.43 6.41-3.32 11.14-9.75 12.27-16.9.69-3.14-.13-6.37.28-9.52 1.08-1 2.2-1.08 3.38-.25.99 1.78.87 3.87.92 5.83.09 8.42-4.09 16.75-10.83 21.79-5.85 4.49-13.59 6.43-20.87 5.25-9.43-1.37-17.82-8.13-21.22-17.02-3.85-9.35-1.81-20.75 4.95-28.25C18.12 6.4 28.59 2.98 38.11 5.12c4.88.92 9.11 3.7 13.03 6.61.17-2.8-.15-5.63.26-8.41l.96-.9z">
  </path>
</svg>